# xmcd
#
# Track frame offsets:
#	182
#	48020
#	68270
#	84360
#	98597
#	118540
#	135492
#	153580
#	171652
#	207127
#	235080
#	257085
#
# Disc length: 3763 seconds
#
# Revision: 0
# Processed by: cddbd v1.4PL0 Copyright (c) Steve Scherf et al.
# Submitted via: dBpowerAMP V4.0
#
DISCID=900eb10c
DTITLE=Diane Dufresne - Mon premier show cd2
DYEAR=1900
DGENRE=
TTITLE0=Medley "mon premier show"
TTITLE1=Chanson pour elvis
TTITLE2=La vie en rose
TTITLE3=Les dessous chics
TTITLE4=J'tombe amoureuse
TTITLE5=Desir
TTITLE6=Habuki
TTITLE7=Top secret
TTITLE8=On fait tous du show business
TTITLE9=Oxygene
TTITLE10=J'ai 12 ans
TTITLE11=Je voudrais te dire que je t'attends
EXTD=
EXTT0=
EXTT1=
EXTT2=
EXTT3=
EXTT4=
EXTT5=
EXTT6=
EXTT7=
EXTT8=
EXTT9=
EXTT10=
EXTT11=
PLAYORDER=
